<svg width="19" height="15" fill="none" xmlns="http://www.w3.org/2000/svg"><path opacity=".3" d="M18.274 2.218a7.691 7.691 0 01-2.124.555 3.572 3.572 0 001.625-1.95c-.726.41-1.52.7-2.349.855A3.777 3.777 0 0012.727.566c-2.04 0-3.698 1.577-3.698 3.522 0 .276.033.546.097.803-3.074-.147-5.798-1.549-7.622-3.68a3.37 3.37 0 00-.5 1.77c0 1.222.652 2.3 1.644 2.932a3.815 3.815 0 01-1.675-.44v.045c0 1.706 1.275 3.13 2.965 3.454a3.899 3.899 0 01-1.67.06c.472 1.4 1.838 2.418 3.455 2.447a7.666 7.666 0 01-4.592 1.507 7.86 7.86 0 01-.882-.049 10.854 10.854 0 005.669 1.583c6.801 0 10.52-5.368 10.52-10.023 0-.153 0-.305-.011-.456a7.358 7.358 0 001.846-1.823z" fill="#fff"/></svg>